<svg width="20" height="20" viewBox="0 0 20 20" fill="none" xmlns="http://www.w3.org/2000/svg">
<path fill-rule="evenodd" clip-rule="evenodd" d="M13.5263 6.27739C12.5132 5.26206 11.1338 4.61361 9.66656 4.61361C6.76718 4.61361 4.21625 7.19406 4.21625 10.1222C4.21625 13.0206 6.76718 15.5718 9.66656 15.5718C11.1338 15.5718 12.4807 14.9859 13.4927 13.9814L13.5078 14.5229C13.494 16.1786 15.6528 17.2845 17.1061 16.1488C20.3144 13.6466 20.5061 7.21424 17.2172 3.77919C14.0708 0.49301 8.85284 -0.159231 4.89498 2.19565C-0.278534 5.27417 -0.382489 11.2165 1.56818 14.5938C4.45545 19.5952 10.636 19.6906 12.8566 18.7441C14.3264 18.1194 13.6726 16.2063 12.2576 16.7776C9.46319 17.9052 4.76126 16.7748 3.11816 12.982C1.61082 9.50554 3.16257 5.80429 5.5876 4.13168C7.8688 2.55949 12.1579 2.09825 15.3548 4.8962C18.7848 7.89752 17.3287 13.0771 16.1115 14.3281C15.7996 14.646 15.2372 14.3899 15.2874 13.8941L15.2839 6.31347C15.2839 6.10001 15.1378 5.42556 14.425 5.42556L14.31 5.42632C13.8543 5.42632 13.5263 5.7937 13.5263 6.28142V6.27739ZM9.7274 6.513C11.6304 6.513 13.2058 7.78948 13.3151 9.91248L13.3201 10.3414C13.2177 12.2076 11.8012 13.7853 9.64716 13.7853C7.71542 13.7853 6.24189 12.3981 6.24189 10.2014C6.24189 8.23987 7.45982 6.513 9.65574 6.513H9.7274Z" fill="black"/>
</svg>
