<svg width="18" height="18" viewBox="0 0 18 18" fill="none" xmlns="http://www.w3.org/2000/svg">
<path fill-rule="evenodd" clip-rule="evenodd" d="M3.60754 16.2C3.60754 15.21 4.40824 14.4 5.39787 14.4C6.38751 14.4 7.19721 15.21 7.19721 16.2C7.19721 17.19 6.38751 18 5.39787 18C4.40824 18 3.60754 17.19 3.60754 16.2ZM12.6042 16.2C12.6042 15.21 13.4049 14.4 14.3945 14.4C15.3842 14.4 16.1939 15.21 16.1939 16.2C16.1939 17.19 15.3842 18 14.3945 18C13.4049 18 12.6042 17.19 12.6042 16.2ZM14.6644 8.973C14.3585 9.531 13.7648 9.9 13.09 9.9H6.38751L5.39787 11.7H16.1939V13.5H5.39787C4.03038 13.5 3.1667 12.033 3.82346 10.827L5.03801 8.631L1.79921 1.8H-0.00012207V0H2.94179L3.78747 1.8H3.7925L4.6478 3.5999H15.5737L16.5742 1.8H17.1025C17.7863 1.8 18.2181 2.538 17.8852 3.132L14.6644 8.973ZM15.5731 3.6H4.64215L6.77436 8.1H13.09L15.5731 3.6Z" fill="white"/>
<path fill-rule="evenodd" clip-rule="evenodd" d="M9.35658 5.04V7.19993H10.4366V5.04H12.5953V3.96H10.4366V1.79993H9.35658V3.96H7.19727V5.04H9.35658Z" fill="white"/>
</svg>
