<svg fill="none" height="18" viewBox="0 0 18 18" width="18" xmlns="http://www.w3.org/2000/svg"><path clip-rule="evenodd" d="m2 18c-1.10457 0-2.00000191-.8954-2.00000191-2l.00000191-14c0-1.10457.89543-2 2-2h16v2h-2-4-10v14h14 2v2zm11.5858-7.5858-.6716.6716-1.4142 1.4142.0858.0858 1.3284 1.3284.0858.0858 1.4142-1.4142 2.1716-2.1716 1.4142-1.4142-1.4142-1.41421-2.1716-2.17158-1.4142-1.41421-.0858.08579-1.3284 1.32842-.0858.08579 1.4142 1.41421.6716.67158.4142.41421h-9.5v2h9.5z" fill="#fff" fill-rule="evenodd"/></svg>