<svg fill="none" height="30" viewBox="0 0 30 30" width="30" xmlns="http://www.w3.org/2000/svg"><g clip-rule="evenodd" fill="#fff" fill-rule="evenodd"><path d="m15 0c-8.28427 0-15 6.71573-15 15 0 8.2843 6.71573 15 15 15 8.2843 0 15-6.7157 15-15 0-8.28427-6.7157-15-15-15zm3.3064 11.5101c-.9497-.9519-2.2429-1.55983-3.6185-1.55983-2.7181 0-5.10962 2.41913-5.10962 5.16433 0 2.7172 2.39152 5.1089 5.10962 5.1089 1.3756 0 2.6383-.5492 3.5871-1.4909l.0142.5076c-.0131 1.5522 2.0108 2.589 3.3734 1.5243 3.0077-2.3458 3.1874-8.3761.104-11.59649-2.9497-3.0808-7.8415-3.69227-11.552-1.48457-4.85018 2.88616-4.94763 8.45706-3.11888 11.62326 2.70681 4.6888 8.50108 4.7782 10.58288 3.8909 1.3779-.5856.765-2.3791-.5615-1.8436-2.6198 1.0571-7.0279-.0026-8.56827-3.5584-1.41314-3.2591.04163-6.7291 2.31507-8.29713 2.1386-1.47393 6.1597-1.90634 9.1568.71673 3.2156 2.8137 1.8505 7.6696.7094 8.8424-.2924.298-.8197.0579-.7726-.4069l-.0033-7.1068c0-.2001-.137-.8324-.8052-.8324l-.1079.0007c-.4272 0-.7347.3444-.7347.8017z"/><path d="m18.1084 14.918c-.1024-1.9903-1.5794-3.187-3.3634-3.187h-.0672c-2.0587 0-3.2005 1.6189-3.2005 3.4578 0 2.0594 1.3814 3.3599 3.1924 3.3599 2.0194 0 3.3474-1.4791 3.4435-3.2286z"/></g></svg>