<svg width="27" height="27" viewBox="0 0 27 27" fill="none" xmlns="http://www.w3.org/2000/svg">
<path fill-rule="evenodd" clip-rule="evenodd" d="M18.065 17H19.25L26.735 24.5L24.5 26.735L17 19.25V18.065L16.595 17.645C14.885 19.115 12.665 20 10.25 20C4.865 20 0.5 15.635 0.5 10.25C0.5 4.865 4.865 0.5 10.25 0.5C15.635 0.5 20 4.865 20 10.25C20 12.665 19.115 14.885 17.645 16.595L18.065 17ZM3.5 10.25C3.5 13.985 6.515 17 10.25 17C13.985 17 17 13.985 17 10.25C17 6.515 13.985 3.5 10.25 3.5C6.515 3.5 3.5 6.515 3.5 10.25Z" fill="black" fill-opacity="0.54"/>
</svg>
