<svg width="32" height="32" viewBox="0 0 32 32" fill="none" xmlns="http://www.w3.org/2000/svg">
<path d="M5.33301 14C4.22634 14 3.33301 14.8933 3.33301 16C3.33301 17.1067 4.22634 18 5.33301 18C6.43967 18 7.33301 17.1067 7.33301 16C7.33301 14.8933 6.43967 14 5.33301 14ZM5.33301 6C4.22634 6 3.33301 6.89333 3.33301 8C3.33301 9.10667 4.22634 10 5.33301 10C6.43967 10 7.33301 9.10667 7.33301 8C7.33301 6.89333 6.43967 6 5.33301 6ZM5.33301 22C4.22634 22 3.33301 22.9067 3.33301 24C3.33301 25.0933 4.23967 26 5.33301 26C6.42634 26 7.33301 25.0933 7.33301 24C7.33301 22.9067 6.43967 22 5.33301 22ZM9.33301 25.3333H27.9997V22.6667H9.33301V25.3333ZM9.33301 17.3333H27.9997V14.6667H9.33301V17.3333ZM9.33301 6.66667V9.33333H27.9997V6.66667H9.33301Z" fill="black"/>
</svg>
