<svg width="32" height="32" viewBox="0 0 32 32" fill="none" xmlns="http://www.w3.org/2000/svg">
<path d="M4 6.66667V25.3333C4 26.8 5.2 28 6.66667 28H25.3333C26.8 28 28 26.8 28 25.3333V6.66667C28 5.2 26.8 4 25.3333 4H6.66667C5.2 4 4 5.2 4 6.66667ZM14.6667 25.3333H8C7.26667 25.3333 6.66667 24.7333 6.66667 24V17.3333H13.3333C14.0667 17.3333 14.6667 17.9333 14.6667 18.6667V25.3333ZM13.3333 14.6667H6.66667V8C6.66667 7.26667 7.26667 6.66667 8 6.66667H14.6667V13.3333C14.6667 14.0667 14.0667 14.6667 13.3333 14.6667ZM24 25.3333H17.3333V18.6667C17.3333 17.9333 17.9333 17.3333 18.6667 17.3333H25.3333V24C25.3333 24.7333 24.7333 25.3333 24 25.3333ZM25.3333 14.6667H18.6667C17.9333 14.6667 17.3333 14.0667 17.3333 13.3333V6.66667H24C24.7333 6.66667 25.3333 7.26667 25.3333 8V14.6667Z" fill="black" fill-opacity="0.54"/>
<path d="M4 6.66667V25.3333C4 26.8 5.2 28 6.66667 28H25.3333C26.8 28 28 26.8 28 25.3333V6.66667C28 5.2 26.8 4 25.3333 4H6.66667C5.2 4 4 5.2 4 6.66667ZM14.6667 25.3333H8C7.26667 25.3333 6.66667 24.7333 6.66667 24V17.3333H13.3333C14.0667 17.3333 14.6667 17.9333 14.6667 18.6667V25.3333ZM13.3333 14.6667H6.66667V8C6.66667 7.26667 7.26667 6.66667 8 6.66667H14.6667V13.3333C14.6667 14.0667 14.0667 14.6667 13.3333 14.6667ZM24 25.3333H17.3333V18.6667C17.3333 17.9333 17.9333 17.3333 18.6667 17.3333H25.3333V24C25.3333 24.7333 24.7333 25.3333 24 25.3333ZM25.3333 14.6667H18.6667C17.9333 14.6667 17.3333 14.0667 17.3333 13.3333V6.66667H24C24.7333 6.66667 25.3333 7.26667 25.3333 8V14.6667Z" fill="black" fill-opacity="0.54"/>
</svg>
