<svg fill="none" height="30" viewBox="0 0 30 30" width="30" xmlns="http://www.w3.org/2000/svg"><path clip-rule="evenodd" d="m15 30c8.2843 0 15-6.7157 15-15 0-8.28427-6.7157-15-15-15-8.28427 0-15 6.71573-15 15 0 8.2843 6.71573 15 15 15zm-2.75-8.125c.3648 0 .5315-.1623.733-.3585l.017-.0165 1.8017-1.7519 3.7483 2.7693c.6898.3806 1.1877.1835 1.3595-.6405l2.4606-11.5953c.2519-1.01007-.385-1.46817-1.0449-1.16857l-14.44875 5.57137c-.98626.3956-.98051.9458-.17978 1.191l3.70783 1.1573 8.5842-5.4156c.4052-.2458.7771-.1137.4719.1573l-6.9553 6.2765-.0001.0001-.0002.0002.0002.0002z" fill="#fff" fill-rule="evenodd"/></svg>