<svg fill="none" height="30" viewBox="0 0 30 30" width="30" xmlns="http://www.w3.org/2000/svg"><g clip-rule="evenodd" fill="#fff" fill-rule="evenodd"><path d="m30 15c0 8.2843-6.7157 15-15 15-8.28427 0-15-6.7157-15-15 0-8.28427 6.71573-15 15-15 8.2843 0 15 6.71573 15 15zm-14.5093 8.3453h.0037c4.9178-.002 8.9175-4.0027 8.9194-8.9194.001-2.3833-.9259-4.6242-2.6099-6.31008-1.684-1.68597-3.9235-2.61485-6.3096-2.61588-4.9163 0-8.91756 4.00106-8.91952 8.91886-.00067 1.5721.41005 3.1065 1.1906 4.4592l-1.26538 4.6219 4.7283-1.2403c1.3028.7106 2.7696 1.0851 4.2624 1.0857z"/><path d="m11.7181 20.8057-.2707-.1607-2.80583.736.74892-2.7357-.17626-.2805c-.74211-1.1803-1.13405-2.5445-1.13348-3.9453.00162-4.0875 3.32735-7.41291 7.41665-7.41291 1.9801.00069 3.8415.77279 5.2412 2.1741 1.3996 1.40131 2.17 3.26391 2.1692 5.24481-.0016 4.0878-3.3273 7.4135-7.4134 7.4135h-.003c-1.3303-.0005-2.635-.3579-3.7733-1.0333zm7.9647-4.4594c.1554.0751.2604.1259.3052.2007.0557.0929.0557.5391-.1299 1.0598-.1858.5206-1.0762.9957-1.5044 1.0597-.384.0574-.8698.0813-1.4037-.0883-.3237-.1027-.7388-.2399-1.2705-.4695-2.0894-.9022-3.5013-2.9272-3.7682-3.3099-.0187-.0268-.0318-.0456-.0391-.0553l-.0018-.0024c-.1179-.1574-.9082-1.2118-.9082-2.3031 0-1.0266.5043-1.5647.7364-1.8123.0159-.017.0305-.0326.0436-.0469.2043-.2232.4458-.2789.5943-.2789.1486 0 .2973.0013.4272.0079.016.0008.0327.0007.0499.0006.1299-.0008.2918-.0017.4515.3819.0615.1477.1514.3666.2462.5975.1918.4668.4037.9827.441 1.0573.0557.1116.0928.2417.0185.3905-.0111.0223-.0214.0434-.0313.0635-.0558.1139-.0968.1977-.1915.3083-.0373.0435-.0757.0903-.1142.1372-.0767.0934-.1534.1867-.2201.2532-.1116.1112-.2277.2318-.0977.4549s.5772.9529 1.2398 1.5439c.7122.6352 1.3312.9037 1.645 1.0398.0612.0266.1108.0481.1473.0663.2227.1116.3528.093.4828-.0557.13-.1488.5571-.6508.7056-.8739.1486-.223.2972-.1859.5015-.1115s1.3.6135 1.5229.725c.0435.0218.0842.0415.1219.0597z"/></g></svg>