<svg width="20" height="19" viewBox="0 0 20 19" fill="none" xmlns="http://www.w3.org/2000/svg">
<path d="M14.1696 10.9177C14.1326 10.8999 12.7475 10.2178 12.5013 10.1293C12.4008 10.0932 12.2932 10.0579 12.1787 10.0579C11.9917 10.0579 11.8345 10.1512 11.7121 10.3342C11.5738 10.5399 11.1549 11.0295 11.0255 11.1758C11.0086 11.1951 10.9855 11.2182 10.9717 11.2182C10.9593 11.2182 10.7449 11.1299 10.68 11.1017C9.19416 10.4563 8.06631 8.90413 7.91166 8.64239C7.88957 8.60476 7.88865 8.58767 7.88846 8.58767C7.89389 8.56774 7.94386 8.51765 7.96964 8.4918C8.04509 8.41716 8.12683 8.31877 8.20591 8.22358C8.24336 8.17849 8.28086 8.13333 8.31769 8.09077C8.43243 7.95728 8.48351 7.85364 8.54273 7.73359L8.57376 7.67123C8.71836 7.38394 8.59485 7.14151 8.55494 7.06323C8.52219 6.99771 7.93732 5.58616 7.87514 5.43786C7.72561 5.08001 7.52802 4.91339 7.25344 4.91339C7.22797 4.91339 7.25344 4.91339 7.1466 4.91789C7.0165 4.92338 6.30801 5.01666 5.99476 5.21412C5.66257 5.42355 5.10059 6.09114 5.10059 7.26519C5.10059 8.32185 5.77114 9.31954 6.05904 9.69898C6.06619 9.70854 6.07933 9.72798 6.09839 9.75586C7.20095 11.366 8.57542 12.5593 9.96878 13.116C11.3102 13.6518 11.9454 13.7137 12.3065 13.7137C12.3066 13.7137 12.3066 13.7137 12.3066 13.7137C12.4583 13.7137 12.5798 13.7018 12.6869 13.6913L12.7549 13.6848C13.2183 13.6437 14.2367 13.116 14.4683 12.4723C14.6508 11.9653 14.6989 11.4113 14.5775 11.2103C14.4943 11.0736 14.351 11.0048 14.1696 10.9177Z" fill="white"/>
<path d="M9.77998 0C4.63418 0 0.447762 4.15496 0.447762 9.26207C0.447762 10.9139 0.889821 12.5308 1.72724 13.9459L0.124392 18.674C0.0945346 18.7622 0.116742 18.8597 0.181947 18.926C0.229015 18.9741 0.292863 19 0.358067 19C0.383051 19 0.40822 18.9962 0.432772 18.9884L5.36291 17.4218C6.71203 18.1426 8.23684 18.5231 9.78004 18.5231C14.9253 18.5232 19.1113 14.3686 19.1113 9.26207C19.1113 4.15496 14.9253 0 9.77998 0ZM9.77998 16.5938C8.32789 16.5938 6.92146 16.1745 5.71249 15.3812C5.67184 15.3545 5.62465 15.3408 5.57715 15.3408C5.55204 15.3408 5.52687 15.3446 5.50238 15.3524L3.03269 16.1374L3.82995 13.7853C3.85574 13.7092 3.84284 13.6252 3.79534 13.5603C2.87471 12.3024 2.38805 10.8161 2.38805 9.26207C2.38805 5.21883 5.70404 1.92936 9.77992 1.92936C13.8553 1.92936 17.1709 5.21883 17.1709 9.26207C17.171 13.3048 13.8554 16.5938 9.77998 16.5938Z" fill="white"/>
</svg>
